<svg version="1.1" id="Layer_1" xmlns="http://www.w3.org/2000/svg" xmlns:xlink="http://www.w3.org/1999/xlink" x="0px" y="0px"
	 width="100%" viewBox="0 0 96 93" enable-background="new 0 0 96 93" xml:space="preserve">
<path fill="#040404" opacity="1.000000" stroke="none" 
	d="
M35.000000,94.000000 
	C23.752876,94.000000 12.505753,94.000000 1.000000,94.000000 
	C1.000000,86.314392 1.000000,78.625885 1.354143,70.478928 
	C7.301196,65.547867 12.960717,61.154099 18.428934,56.533913 
	C19.480295,55.645599 19.780693,53.868492 20.427530,52.501408 
	C18.347528,52.514656 15.631855,51.693306 14.309103,52.700783 
	C10.635180,55.499023 7.605273,59.129063 4.163297,62.257019 
	C3.462535,62.893856 2.072363,62.772072 1.000000,63.000000 
	C1.000000,58.975456 1.000000,54.950912 1.448840,50.490002 
	C4.140314,49.650501 6.370255,49.146961 8.627775,48.861584 
	C18.476610,47.616577 28.881599,49.197037 35.605358,55.423138 
	C45.401363,64.494087 56.487225,66.575447 68.457024,67.081131 
	C75.713806,67.387703 81.326843,70.368973 86.176537,75.035400 
	C91.547913,80.203796 90.822731,87.303413 91.000000,94.000000 
	C74.645775,94.000000 58.291546,94.000000 41.162910,93.719193 
	C49.967064,87.981056 51.898838,78.000732 55.710060,68.821854 
	C49.753578,67.939194 48.387329,69.529228 46.928749,75.212250 
	C45.917137,79.153748 43.825794,82.933090 41.637390,86.421341 
	C39.875275,89.230095 37.245056,91.494225 35.000000,94.000000 
z"/>
<path fill="#000000" opacity="1.000000" stroke="none" 
	d="
M1.000000,36.000000 
	C1.000000,28.979052 1.000000,21.958103 1.210315,14.025445 
	C3.271493,16.059759 5.122356,19.005785 6.607123,22.031143 
	C6.499890,23.073578 6.758751,24.036684 7.253681,25.310509 
	C7.853125,27.327539 8.216500,29.033852 8.563056,30.661182 
	C12.363796,31.404440 13.254448,29.491257 12.891906,26.464613 
	C12.662478,24.549265 12.414261,22.621862 11.966796,20.749498 
	C10.321863,13.866454 9.090553,6.675773 1.000000,4.000000 
	C1.000000,3.009611 1.000000,2.019222 1.000000,1.000000 
	C15.020884,1.000000 29.041782,1.000000 43.738937,1.376658 
	C42.424137,13.910217 40.474991,26.084999 29.609282,34.463806 
	C33.309425,36.696457 35.549850,35.963165 38.030434,33.441811 
	C46.930073,24.395864 49.221653,12.826555 51.000000,1.000000 
	C53.041668,1.000000 55.083332,1.000000 57.839722,1.395502 
	C58.033569,5.806591 57.074059,9.822659 57.078476,13.837667 
	C57.089390,23.758295 57.593746,33.677422 57.788483,43.599335 
	C57.854919,46.984470 57.589420,50.376114 56.987198,53.865810 
	C56.174030,54.038021 55.849255,54.109203 55.190102,54.294662 
	C53.367508,53.160221 51.821484,51.973728 50.400013,50.653164 
	C36.350170,37.600704 20.545080,30.508047 1.000000,36.000000 
z"/>
<path fill="#F8F8F8" opacity="1.000000" stroke="none" 
	d="
M1.000000,36.464653 
	C20.545080,30.508047 36.350170,37.600704 50.400013,50.653164 
	C51.821484,51.973728 53.367508,53.160221 55.416214,54.597290 
	C57.193546,55.309731 58.475048,55.721142 59.616737,56.376221 
	C66.910667,60.561352 74.060326,56.586849 74.111839,48.119904 
	C74.131645,44.863724 73.361931,41.610008 73.226135,38.343769 
	C73.059090,34.325977 72.683510,30.221676 73.276299,26.287083 
	C74.552986,17.813177 76.391449,9.423907 78.000000,1.000000 
	C79.714355,1.000000 81.428719,1.000000 83.614731,1.425699 
	C83.764542,4.256637 83.299034,6.652933 83.148659,9.068842 
	C82.748726,15.494629 83.082367,22.026325 82.052795,28.341209 
	C79.134361,46.241264 84.990547,61.521156 95.122360,75.699020 
	C95.381401,76.061501 96.358032,75.911171 97.000000,76.000000 
	C97.000000,82.000214 97.000000,88.000427 97.000000,94.000000 
	C95.261505,94.000000 93.630226,94.000000 91.499474,94.000000 
	C90.822731,87.303413 91.547913,80.203796 86.176537,75.035400 
	C81.326843,70.368973 75.713806,67.387703 68.457024,67.081131 
	C56.487225,66.575447 45.401363,64.494087 35.605358,55.423138 
	C28.881599,49.197037 18.476610,47.616577 8.627775,48.861584 
	C6.370255,49.146961 4.140314,49.650501 1.448840,50.026817 
	C1.000000,45.643101 1.000000,41.286201 1.000000,36.464653 
z"/>
<path fill="#040404" opacity="1.000000" stroke="none" 
	d="
M97.000000,75.531342 
	C96.358032,75.911171 95.381401,76.061501 95.122360,75.699020 
	C84.990547,61.521156 79.134361,46.241264 82.052795,28.341209 
	C83.082367,22.026325 82.748726,15.494629 83.148659,9.068842 
	C83.299034,6.652933 83.764542,4.256637 84.043190,1.425699 
	C88.311676,1.000000 92.623352,1.000000 97.000000,1.000000 
	C97.000000,25.687527 97.000000,50.375103 97.000000,75.531342 
z"/>
<path fill="#080808" opacity="1.000000" stroke="none" 
	d="
M77.532394,1.000000 
	C76.391449,9.423907 74.552986,17.813177 73.276299,26.287083 
	C72.683510,30.221676 73.059090,34.325977 73.226135,38.343769 
	C73.361931,41.610008 74.131645,44.863724 74.111839,48.119904 
	C74.060326,56.586849 66.910667,60.561352 59.616737,56.376221 
	C58.475048,55.721142 57.193546,55.309731 55.750584,54.483017 
	C55.849255,54.109203 56.174030,54.038021 57.257305,53.688599 
	C59.213627,49.327629 61.355881,45.263260 61.435715,41.158779 
	C61.695930,27.780407 61.203091,14.387385 61.000000,1.000000 
	C66.354927,1.000000 71.709862,1.000000 77.532394,1.000000 
z"/>
<path fill="#EEEEEE" opacity="1.000000" stroke="none" 
	d="
M50.562500,1.000000 
	C49.221653,12.826555 46.930073,24.395864 38.030434,33.441811 
	C35.549850,35.963165 33.309425,36.696457 29.609282,34.463806 
	C40.474991,26.084999 42.424137,13.910217 44.207596,1.376658 
	C46.041668,1.000000 48.083332,1.000000 50.562500,1.000000 
z"/>
<path fill="#CDCDCD" opacity="1.000000" stroke="none" 
	d="
M60.625000,1.000000 
	C61.203091,14.387385 61.695930,27.780407 61.435715,41.158779 
	C61.355881,45.263260 59.213627,49.327629 57.745697,53.587574 
	C57.589420,50.376114 57.854919,46.984470 57.788483,43.599335 
	C57.593746,33.677422 57.089390,23.758295 57.078476,13.837667 
	C57.074059,9.822659 58.033569,5.806591 58.277222,1.395502 
	C58.750000,1.000000 59.500000,1.000000 60.625000,1.000000 
z"/>
<path fill="#E8E8E8" opacity="1.000000" stroke="none" 
	d="
M35.428463,94.000000 
	C37.245056,91.494225 39.875275,89.230095 41.637390,86.421341 
	C43.825794,82.933090 45.917137,79.153748 46.928749,75.212250 
	C48.387329,69.529228 49.753578,67.939194 55.710060,68.821854 
	C51.898838,78.000732 49.967064,87.981056 40.694252,93.719193 
	C39.285641,94.000000 37.571285,94.000000 35.428463,94.000000 
z"/>
<path fill="#F3F3F3" opacity="1.000000" stroke="none" 
	d="
M6.973218,21.951811 
	C5.122356,19.005785 3.271493,16.059759 1.210315,13.556868 
	C1.000000,10.969407 1.000000,7.938814 1.000000,4.454110 
	C9.090553,6.675773 10.321863,13.866454 11.966796,20.749498 
	C12.414261,22.621862 12.662478,24.549265 12.891906,26.464613 
	C13.254448,29.491257 12.363796,31.404440 8.563056,30.661182 
	C8.216500,29.033852 7.853125,27.327539 7.336130,25.010632 
	C7.112746,23.583961 7.042982,22.767887 6.973218,21.951811 
z"/>
<path fill="#EDEDED" opacity="1.000000" stroke="none" 
	d="
M1.000000,63.437500 
	C2.072363,62.772072 3.462535,62.893856 4.163297,62.257019 
	C7.605273,59.129063 10.635180,55.499023 14.309103,52.700783 
	C15.631855,51.693306 18.347528,52.514656 20.427530,52.501408 
	C19.780693,53.868492 19.480295,55.645599 18.428934,56.533913 
	C12.960717,61.154099 7.301196,65.547867 1.354143,70.010239 
	C1.000000,67.958336 1.000000,65.916664 1.000000,63.437500 
z"/>
<path fill="#030303" opacity="1.000000" stroke="none" 
	d="
M6.607123,22.031143 
	C7.042982,22.767887 7.112746,23.583961 7.100060,24.699913 
	C6.758751,24.036684 6.499890,23.073578 6.607123,22.031143 
z"/>
</svg>